<svg width="138" height="24" viewBox="0 0 138 24" fill="none" xmlns="http://www.w3.org/2000/svg">
<g id="Group 7">
<g id="CHAT3">
<path d="M39.1635 0.55504H46.9564V23.2087H39.1635V0.55504ZM56.6219 0.55504H64.4148V23.2087H56.6219V0.55504ZM43.5734 8.19689H59.6726V15.0836H43.5734V8.19689Z" fill="white"/>
<path d="M72.9964 20.2147L76.3114 15.6575H83.8138L72.9964 20.2147ZM85.2579 0.55504L95.1953 23.2087H86.8889L79.0658 3.9984H81.0594L73.2363 23.2087H64.9299L74.8674 0.55504H85.2579Z" fill="white"/>
<path d="M97.8408 4.69897H105.634V23.9999H97.8408V4.69897ZM86.2549 0.55504L118.224 0.590281C115.422 2.29353 112.616 4.25318 112.796 8.10627L89.6848 8.10653L86.2549 0.55504Z" fill="white"/>
<path d="M113.488 8.10627C113.569 6.6363 114.072 5.29721 114.999 4.08902C115.945 2.86068 117.314 1.87399 119.106 1.12893C120.919 0.38388 123.134 0.0113525 125.752 0.0113525C127.946 0.0113525 129.859 0.283196 131.491 0.826884C133.122 1.37057 134.39 2.1257 135.296 3.09226C136.202 4.05881 136.656 5.18646 136.656 6.47521C136.656 7.48204 136.343 8.40832 135.719 9.25406C135.115 10.0998 134.128 10.7744 132.759 11.2778C131.39 11.7611 129.578 11.9926 127.322 11.9725V11.308C129.376 11.2073 131.128 11.3281 132.578 11.6705C134.048 12.0128 135.176 12.5867 135.961 13.3921C136.746 14.1976 137.139 15.2548 137.139 16.5637C137.139 17.9531 136.676 19.1915 135.749 20.2789C134.823 21.3461 133.474 22.1918 131.702 22.8161C129.93 23.4403 127.775 23.7524 125.238 23.7524C122.781 23.7524 120.637 23.4202 118.804 22.7557C116.972 22.0912 115.542 21.1447 114.515 19.9164C113.509 18.6881 112.975 17.2382 112.914 15.5669H120.647C120.768 16.3119 121.181 16.8858 121.885 17.2886C122.61 17.6913 123.728 17.8927 125.238 17.8927C126.487 17.8927 127.463 17.7316 128.168 17.4094C128.873 17.0671 129.225 16.5838 129.225 15.9596C129.225 15.5971 129.114 15.295 128.893 15.0534C128.692 14.8118 128.299 14.6406 127.715 14.5399C127.151 14.4191 126.336 14.3587 125.268 14.3587H121.523V9.31447H125.268C126.678 9.31447 127.624 9.16345 128.108 8.8614C128.611 8.55935 128.863 8.14655 128.863 7.62299C128.863 7.03903 128.551 6.6061 127.926 6.32418C127.322 6.02213 126.456 5.87111 125.329 5.87111C124.02 5.87111 123.033 6.07247 122.369 6.47521C121.724 6.8578 121.342 7.40149 121.221 8.10627H113.488Z" fill="white"/>
</g>
<g id="Symbol">
<g id="Disc">
<mask id="mask0_2314_35676" style="mask-type:luminance" maskUnits="userSpaceOnUse" x="0" y="0" width="38" height="24">
<g id="clip-path">
<path id="Vector" d="M24.6801 14.8262C33.1126 9.43612 38.5782 3.74392 37.267 1.45978C36.3606 -0.111313 32.4328 0.296568 27.1878 2.20908C28.0156 2.88301 28.7519 3.66204 29.3782 4.52645C30.1215 4.55968 30.6351 4.76211 30.8647 5.15791C31.8346 6.83777 27.1908 11.3335 20.4864 15.2039C19.5528 15.7447 18.6253 16.2432 17.7219 16.6964L17.0814 16.9985C14.9992 18.05 12.8116 18.8784 10.5553 19.47C10.3559 19.5183 10.1595 19.5606 9.96914 19.5969C8.21072 19.9413 6.98406 19.8235 6.59733 19.1528C6.21059 18.482 6.71818 17.3641 7.89046 16.0166C7.5835 15.1731 7.36874 14.2989 7.24994 13.4092C2.11366 17.4427 -0.804959 21.1257 0.195105 22.863C1.19517 24.6002 5.84803 23.9235 11.9149 21.4883L12.4859 21.2556C15.1605 20.1337 17.7691 18.8607 20.2991 17.4427C20.6707 17.2342 21.0424 17.0257 21.414 16.8082C22.544 16.1586 23.6347 15.4939 24.6801 14.8262Z" fill="white"/>
</g>
</mask>
<g mask="url(#mask0_2314_35676)">
<g id="Group">
<path id="Vector_2" d="M38.5839 -0.11145H-0.805298V24.5971H38.5839V-0.11145Z" fill="url(#paint0_linear_2314_35676)"/>
</g>
</g>
</g>
<g id="C">
<mask id="mask1_2314_35676" style="mask-type:luminance" maskUnits="userSpaceOnUse" x="7" y="0" width="23" height="24">
<g id="clip-path-2">
<path id="Vector_3" d="M8.4826 16.0952C8.9083 17.1657 9.48963 18.1674 10.2078 19.0682C10.5703 18.9866 10.9269 18.893 11.2592 18.7963C12.6833 18.377 14.0765 17.8591 15.4287 17.2463C15.8003 17.0802 16.1689 16.911 16.5375 16.7357C15.6674 16.2331 14.9439 15.5116 14.4388 14.6429C13.9337 13.7742 13.6646 12.7886 13.6582 11.7837V11.7596C13.6582 11.5692 13.6582 11.3789 13.6854 11.1916C13.8097 9.883 14.3781 8.65637 15.2959 7.71543C16.2138 6.7745 17.4259 6.17588 18.731 6.01902C18.9556 5.9923 19.1816 5.97919 19.4078 5.97975C20.8485 5.97711 22.2376 6.51636 23.2993 7.49042C23.6872 7.85188 24.1323 8.55607 24.6595 8.61325C25.3674 8.25928 25.7675 8.07753 26.2239 7.80766L29.6078 5.85889C29.4416 5.55676 29.2604 5.28484 29.067 5.0099C28.9552 4.84977 28.8404 4.69266 28.7195 4.53857C28.1064 3.74739 27.3958 3.03679 26.6046 2.42363C26.4535 2.3068 26.2974 2.19602 26.1363 2.09128C24.3698 0.869847 22.303 0.154451 20.1594 0.0224146C18.0157 -0.109622 15.8768 0.346723 13.9737 1.34213C12.0706 2.33753 10.4758 3.83413 9.36153 5.67018C8.2473 7.50623 7.65607 9.61189 7.65173 11.7596C7.65173 11.9983 7.65173 12.2369 7.67288 12.4696C7.69403 12.7022 7.70007 12.8563 7.72122 13.0467C7.81579 13.9173 8.00733 14.7746 8.29226 15.6027C8.35268 15.7759 8.41613 15.9451 8.4826 16.1103M24.7737 15.3489C23.7504 15.9995 22.7131 16.627 21.6617 17.2312C19.2426 18.6356 16.7516 19.9123 14.199 21.0562C13.7941 21.2345 13.3862 21.4128 12.9753 21.585C14.3142 22.4614 15.8177 23.0555 17.3939 23.331C18.9702 23.6066 20.5861 23.5578 22.1429 23.1876C23.6996 22.8175 25.1646 22.1337 26.4481 21.1781C27.7316 20.2226 28.8067 19.0153 29.6078 17.63L26.236 15.6873C25.7952 15.4262 25.2844 15.308 24.7737 15.3489Z" fill="white"/>
</g>
</mask>
<g mask="url(#mask1_2314_35676)">
<g id="Group_2">
<path id="Vector_4" d="M29.6139 -0.0235596H7.65173V23.5157H29.6139V-0.0235596Z" fill="url(#paint1_linear_2314_35676)"/>
</g>
</g>
</g>
</g>
</g>
<defs>
<linearGradient id="paint0_linear_2314_35676" x1="2.24626" y1="21.3612" x2="35.9795" y2="2.87666" gradientUnits="userSpaceOnUse">
<stop stop-color="#3500CC"/>
<stop offset="0.65625" stop-color="white"/>
</linearGradient>
<linearGradient id="paint1_linear_2314_35676" x1="25.9641" y1="23.7604" x2="12.214" y2="1.22426" gradientUnits="userSpaceOnUse">
<stop stop-color="#CC0062"/>
<stop offset="1" stop-color="#3500CC"/>
</linearGradient>
</defs>
</svg>
